SplineFontDB: 3.0
FontName: Parkosz
FullName: Parkosz
FamilyName: Parkosz
Weight: Medium
Copyright: Created by Maciej Strzelczyk, with FontForge 2.0 (http://fontforge.sf.net)
UComments: "2013-6-9: Created." 
Version: 001.000
ItalicAngle: 0
UnderlinePosition: -102
UnderlineWidth: 51
Ascent: 683
Descent: 341
LayerCount: 2
Layer: 0 0 "Warstwa t+AUIA-a"  1
Layer: 1 0 "Plan pierwszy"  0
XUID: [1021 90 1930998488 16230043]
FSType: 8
OS2Version: 0
OS2_WeightWidthSlopeOnly: 0
OS2_UseTypoMetrics: 1
CreationTime: 1370812374
ModificationTime: 1371752933
PfmFamily: 17
TTFWeight: 500
TTFWidth: 5
LineGap: 92
VLineGap: 0
OS2TypoAscent: 0
OS2TypoAOffset: 1
OS2TypoDescent: 0
OS2TypoDOffset: 1
OS2TypoLinegap: 92
OS2WinAscent: 0
OS2WinAOffset: 1
OS2WinDescent: 0
OS2WinDOffset: 1
HheadAscent: 0
HheadAOffset: 1
HheadDescent: 0
HheadDOffset: 1
OS2Vendor: 'PfEd'
Lookup: 4 0 1 "'liga' Ligatury zwyk+AUIA-e w +AUIA-aci+AUQA-skie w tablicy 0"  {"'liga' Ligatury zwyk+AUIA-e w +AUIA-aci+AUQA-skie w tablicy 0-1"  } ['liga' ('DFLT' <'dflt' > 'latn' <'dflt' > ) ]
MarkAttachClasses: 1
DEI: 91125
LangName: 1033 
Encoding: UnicodeFull
UnicodeInterp: none
NameList: Adobe Glyph List
DisplaySize: -24
AntiAlias: 1
FitToEm: 1
WidthSeparation: 100
WinInfo: 306 51 17
BeginPrivate: 0
EndPrivate
Grid
-1024 -165.342 m 0
 2048 -165.342 l 0
  Named: "D+APMBQgAA" 
-1024 537.6 m 0
 2048 537.6 l 0
  Named: "Du+AXwA-e" 
-1024 360.96 m 0
 2048 360.96 l 0
  Named: "Ma+AUIA-e" 
EndSplineSet
BeginChars: 1114112 36

StartChar: a
Encoding: 97 97 0
Width: 417
VWidth: 0
Flags: HW
HStem: 0 48<102 182> 333 28<340 348>
VStem: 40 54<52 254> 226 57<54 72>
LayerCount: 2
Fore
SplineSet
40 134 m 0
 40 263 100 345 169 358 c 0
 183 361 192 361 203 361 c 3
 229 361 250 354 258 342 c 0
 260 339 262 337 265 337 c 0
 274 337 284 361 284 361 c 1
 348 361 l 1
 368 333 l 1
 367 333 365 333 364 333 c 0
 307 333 282 145 282 81 c 0
 282 61 288 52 296 52 c 0
 319 52 363 116 373 175 c 1
 377 166 379 152 379 137 c 0
 379 81 354 -0 298 0 c 0
 229 0 226 62 226 71 c 0
 226 72 226 72 226 72 c 1
 217 41 176 0 135 0 c 0
 93 0 40 28 40 134 c 0
128 48 m 0
 201 48 249 152 249 240 c 0
 249 271 243 299 231 321 c 0
 226 331 213 335 201 335 c 0
 192 335 184 333 178 330 c 0
 117 297 94 208 94 138 c 0
 94 106 96 48 128 48 c 0
EndSplineSet
Validated: 1
EndChar

StartChar: b
Encoding: 98 98 1
Width: 490
VWidth: 0
Flags: HW
HStem: 0 73<195 294> 267 9<34 47> 299 63<263 351> 521 17G<277 306> 521 17G<277 306>
VStem: 104 75<88 211> 366 83<154 284>
LayerCount: 2
Fore
SplineSet
366 228 m 0xe6
 366 257 349 299 311 299 c 0
 255 299 179 209 179 140 c 0
 179 108 200 73 238 73 c 0
 298 73 366 159 366 228 c 0xe6
261 350 m 1
 290 355 321 362 348 362 c 0
 374 362 397 356 412 335 c 0
 438 298 450 261 450 226 c 3
 450 135 377 58 331 28 c 0
 302 9 269 0 237 0 c 3
 171 0 111 36 104 101 c 1
 104 165 134 239 147 283 c 1
 114 276 80 267 58 267 c 0
 45 267 36 270 33 277 c 1
 83 290 138 318 165 348 c 1
 179 456 174 464 205 505 c 0
 226 533 264 538 290 538 c 0xf6
 321 538 338 500 338 469 c 0
 338 418 290 377 261 350 c 1
227 388 m 1
 242 399 270 431 281 456 c 0
 283 460 284 466 284 472 c 0
 284 481 281 490 274 492 c 1
 273 492 272 493 271 493 c 0
 263 493 252 484 245 472 c 0
 237 458 227 422 227 397 c 0
 227 394 227 391 227 388 c 1
EndSplineSet
Validated: 1
EndChar

StartChar: c
Encoding: 99 99 2
Width: 351
VWidth: 0
Flags: HW
HStem: 0 18G<136 158> 344 17G<214 257>
VStem: 40 275<236 283>
LayerCount: 2
Fore
SplineSet
226 332 m 0
 164 308 120 189 120 107 c 0
 120 67 130 36 154 29 c 1
 158 28 163 28 167 28 c 0
 218 28 233 86 274 160 c 0
 276 163 281 166 287 166 c 0
 295 166 304 160 304 143 c 1
 277 79 234 10 170 1 c 0
 165 0 161 0 156 0 c 3
 116 0 68 17 49 84 c 0
 43 106 40 126 40 145 c 3
 40 292 199 361 230 361 c 0
 285 361 294 346 311 302 c 1
 314 292 315 283 315 273 c 3
 315 240 298 211 263 211 c 0
 257 211 252 212 246 213 c 0
 233 216 227 226 227 237 c 0
 227 257 242 282 267 296 c 1
 269 298 269 301 269 304 c 0
 269 316 257 334 238 334 c 0
 234 334 230 334 226 332 c 0
EndSplineSet
Validated: 1
EndChar

StartChar: d
Encoding: 100 100 3
Width: 465
VWidth: 0
Flags: HW
HStem: 0 34<96 191> 336 25<191 254> 515 23<217 346 416 433>
LayerCount: 2
Fore
SplineSet
40 159 m 24,0,-1
217 539 m 1,1,-1
 281 539 357 539 433 539 c 1,4,-1
 433 515 l 1,5,-1
 415 515 418 513 415 501 c 2,8,-1
 308 75 l 2,9,-1
 308 74 308 72 308 71 c 0,0,0
 308 60 316 53 327 53 c 0,0,0
 330 53 333 53 337 55 c 0,12,-1
 382 73 387 120 405 161 c 1,15,-1
 409 147 410 133 410 119 c 0,0,0
 410 58 377 -0 322 0 c 0,18,-1
 290 0 241 0 241 73 c 1,21,-1
 229 38 185 0 130 0 c 0,24,-1
 62 0 40 85 40 159 c 3,27,-1
 40 271 131 361 210 361 c 3,30,-1
 252 361 288 359 299 304 c 1,33,-1
 347 500 l 2,34,-1
 350 514 346 515 334 515 c 0,37,-1
 270 515 246 515 217 515 c 1,40,-1
 217 544 217 521 217 539 c 1,1,-1
154 34 m 0,43,-1
 189 34 229 80 251 165 c 0,46,-1
 262 207 269 244 269 272 c 0,0,0
 269 312 255 336 223 336 c 3,49,-1
 185 336 145 285 131 175 c 0,52,-1
 127 145 125 121 125 102 c 0,0,0
 125 49 139 34 154 34 c 0,43,-1
EndSplineSet
Validated: 1
EndChar

StartChar: e
Encoding: 101 101 4
Width: 332
VWidth: 0
Flags: HW
HStem: 0 33<120 200> 310 51<169 237>
VStem: 33 264
LayerCount: 2
Fore
SplineSet
275 171 m 1
 275 133 258 0 139 0 c 3
 80 0 53 39 53 115 c 0
 53 132 54 151 57 171 c 1
 47 173 43 177 33 189 c 1
 47 184 48 183 60 184 c 1
 87 288 134 360 221 360 c 3
 266 360 296 331 296 270 c 3
 296 221 214 169 129 169 c 1
 119 134 112 104 112 81 c 0
 112 51 124 33 156 33 c 3
 217 33 237 98 275 171 c 1
134 190 m 1
 161 195 194 201 212 214 c 0
 230 228 240 251 240 272 c 0
 240 293 230 310 207 310 c 3
 156 310 142 231 134 190 c 1
EndSplineSet
Validated: 1
EndChar

StartChar: f
Encoding: 102 102 5
Width: 506
VWidth: 0
Flags: HW
HStem: -163 105<46 123> 310 34<167 264 332 384> 486 51<351 435>
VStem: 34 97<-111 -63> 264 61<160 310 344 423> 403 70<454 485>
LayerCount: 2
Fore
SplineSet
103 -163 m 3
 63 -163 34 -143 34 -103 c 3
 34 -75 46 -58 85 -58 c 3
 125 -58 125 -81 131 -112 c 1
 134 -114 137 -115 141 -115 c 0
 170 -115 223 -48 264 310 c 1
 167 310 l 1
 167 344 l 1
 271 344 l 1
 287 495 350 538 401 538 c 3
 467 538 473 504 473 475 c 3
 473 449 445 428 424 428 c 0
 412 428 403 435 403 452 c 3
 403 479 399 486 379 486 c 3
 352 486 332 443 332 344 c 1
 384 344 l 1
 384 310 l 1
 325 310 l 1
 271 -157 171 -163 103 -163 c 3
EndSplineSet
Validated: 1
EndChar

StartChar: g
Encoding: 103 103 6
Width: 413
VWidth: 0
Flags: HW
HStem: -273 98<165 237> 292 69<190 281>
VStem: 33 84<-201 -138> 60 72<77 227> 311 60<117 260>
LayerCount: 2
Fore
SplineSet
287 49 m 1xe8
 261 13 224 -0 187 -0 c 0
 177 -0 166 1 156 3 c 0
 101 14 60 60 60 130 c 3xd8
 60 219 109 361 228 361 c 3
 300 361 371 338 371 211 c 3
 371 203 371 197 371 191 c 0
 371 158 370 154 360 107 c 1
 360 -73 314 -79 267 -98 c 0
 193 -128 117 -123 117 -169 c 0
 117 -193 127 -202 142 -202 c 0
 164 -202 195 -184 217 -175 c 0
 220 -174 224 -173 227 -173 c 0
 240 -173 249 -187 249 -216 c 3
 249 -266 202 -273 154 -273 c 3
 80 -273 33 -252 33 -169 c 3
 33 -88 78 -79 138 -62 c 0
 210 -42 287 -78 287 49 c 1xe8
179 61 m 0
 183 60 187 60 191 60 c 0
 247 60 311 123 311 176 c 3
 311 220 290 292 244 292 c 3
 183 292 132 212 132 154 c 0
 132 120 144 67 179 61 c 0
EndSplineSet
Validated: 1
EndChar

StartChar: h
Encoding: 104 104 7
Width: 410
VWidth: 0
Flags: HW
HStem: 0 18G<42.8878 61.8878 227.888 297.888> 326 35<176.888 262.888> 505 33<50.8878 152.888>
LayerCount: 2
Fore
SplineSet
51 538 m 1
 223 538 l 1
 173 335 l 1
 178 352 213 361 241 361 c 3
 249 361 258 359 263 358 c 0
 299 350 320 324 320 290 c 0
 320 284 320 277 318 270 c 0
 307 219 270 167 270 121 c 0
 270 106 274 92 284 78 c 0
 289 72 294 69 300 69 c 0
 327 69 363 126 368 160 c 1
 371 148 373 137 373 125 c 0
 373 59 321 0 266 0 c 0
 228 0 213 31 213 72 c 0
 213 113 229 165 252 203 c 0
 264 223 275 251 275 275 c 0
 275 303 261 326 220 326 c 0
 155 326 153 260 143 225 c 2
 93 32 l 2
 85 3 73 0 51 0 c 0
 39 0 33 8 33 22 c 0
 33 28 34 34 36 42 c 2
 152 476 l 1
 153 480 153 484 153 487 c 0
 153 505 140 505 126 505 c 2
 51 505 l 1
 51 538 l 1
EndSplineSet
Validated: 1
EndChar

StartChar: i
Encoding: 105 105 8
Width: 279
VWidth: 0
Flags: HW
HStem: 0 35<128 184> 336 25<95 147> 447 91<157 235>
VStem: 62 65<36 144> 150 91<453 531> 156 60<221 334>
LayerCount: 2
Fore
SplineSet
36 230 m 1xf4
 46 290 62 361 137 361 c 3
 187 361 217 331 217 286 c 3
 217 207 127 156 127 75 c 3
 127 56 127 35 152 35 c 3
 189 35 213 96 243 141 c 1
 243 76 207 0 132 0 c 3
 95 0 62 18 62 75 c 3
 62 171 156 205 156 286 c 3
 156 316 146 336 127 336 c 3
 82 336 66 280 36 230 c 1xf4
241 492 m 3xf8
 241 467 221 447 196 447 c 3
 171 447 150 467 150 492 c 3
 150 517 171 538 196 538 c 3
 221 538 241 517 241 492 c 3xf8
EndSplineSet
Validated: 1
EndChar

StartChar: j
Encoding: 106 106 9
Width: 424
VWidth: 0
Flags: HW
HStem: -165 38<140 223> 0 34<146 205> 323 38<218 300>
LayerCount: 2
Fore
SplineSet
33 -93 m 0
 33 -59 50 -37 80 -37 c 0
 140 -37 118 -127 169 -127 c 0
 254 -127 260 -37 260 21 c 1
 230 5 200 0 163 0 c 0
 87 0 71 74 71 126 c 0
 71 280 187 361 242 361 c 0
 283 361 312 349 320 322 c 1
 348 322 355 362 383 362 c 0
 385 362 388 361 390 361 c 1
 353 48 315 -165 157 -165 c 0
 102 -165 33 -148 33 -93 c 0
167 34 m 0
 232 34 308 184 308 268 c 0
 308 300 296 323 268 323 c 0
 188 323 136 182 136 97 c 0
 136 60 146 34 167 34 c 0
EndSplineSet
Validated: 1
EndChar

StartChar: k
Encoding: 107 107 10
Width: 426
VWidth: 0
Flags: HW
HStem: 0 40<240.613 314.613> 270 91<309.613 387.613> 506 32<53.6131 162.613>
LayerCount: 2
Fore
SplineSet
106 16 m 2
 102 0 90 0 70 0 c 0
 48 0 33 0 33 12 c 0
 33 13 34 14 34 16 c 2
 162 481 l 1
 163 485 164 489 164 492 c 0
 164 505 151 506 138 506 c 2
 54 506 l 1
 54 538 l 1
 250 538 l 1
 162 217 l 1
 190 217 206 209 220 197 c 1
 267 293 293 361 346 361 c 0
 370 361 393 350 393 318 c 0
 393 290 380 270 357 270 c 0
 353 270 l 0
 331 270 315 271 307 301 c 1
 305 307 303 309 300 309 c 0
 289 309 269 263 232 188 c 1
 259 164 263 133 263 105 c 0
 263 94 262 83 262 74 c 0
 262 54 265 40 285 40 c 0
 326 40 351 93 372 125 c 1
 363 69 327 0 255 0 c 0
 227 0 206 28 206 56 c 0
 206 87 213 94 218 124 c 0
 219 128 219 132 219 135 c 0
 219 166 194 182 167 182 c 0
 162 182 157 181 152 180 c 1
 106 16 l 2
EndSplineSet
Validated: 1
EndChar

StartChar: l
Encoding: 108 108 11
Width: 301
VWidth: 0
Flags: HW
HStem: 0 18G<138.144 196.144> 521 17G<185.144 221.144> 521 17G<185.144 221.144>
VStem: 224.144 39<322 485>
LayerCount: 2
Fore
SplineSet
242 106 m 0xd0
 259 106 266 99 266 88 c 0
 266 58 209 -0 168 0 c 0
 110 0 78 15 78 40 c 0
 78 41 78 43 78 44 c 2
 98 188 l 1
 55 155 l 2
 53 154 51 153 50 153 c 0
 42 153 34 165 34 175 c 0
 34 179 35 182 37 184 c 1
 104 237 l 1
 139 503 l 2
 142 527 170 538 200 538 c 0
 241 538 263 487 263 430 c 0
 263 424 263 418 263 412 c 0
 263 347 259 314 156 233 c 1
 138 77 l 2
 138 74 138 72 138 70 c 0
 138 57 142 52 150 52 c 0
 175 52 231 106 242 106 c 0xd0
161 282 m 1
 203 315 224 326 224 416 c 0
 224 455 208 489 196 489 c 0
 191 489 186 482 184 465 c 2
 161 282 l 1
EndSplineSet
Validated: 1
EndChar

StartChar: m
Encoding: 109 109 12
Width: 676
VWidth: 0
Flags: HW
HStem: -165 34<529.461 615.461> 307 54<108.461 189.461> 326 35<491.461 580.461>
LayerCount: 2
Fore
SplineSet
37 243 m 0xc0
 66 318 115 361 169 361 c 0xc0
 197 361 225 358 243 322 c 1
 269 345 302 361 346 361 c 0xa0
 389 361 410 341 430 307 c 1xc0
 479 356 519 361 567 361 c 0xa0
 597 361 632 345 632 318 c 0
 632 314 631 311 630 307 c 2xc0
 520 -72 l 2
 519 -77 518 -82 518 -87 c 0
 518 -111 538 -131 579 -131 c 0
 613 -131 623 -116 643 -96 c 1
 638 -130 608 -165 574 -165 c 0
 505 -165 468 -132 468 -94 c 0
 468 -89 469 -83 471 -77 c 2
 567 253 l 2
 572 273 580 293 580 307 c 0
 580 318 575 326 558 326 c 0xa0
 508 326 445 293 430 243 c 2
 361 8 l 2
 360 3 352 0 344 0 c 0
 329 0 311 8 311 27 c 0
 311 30 311 34 312 37 c 2
 381 273 l 2
 383 281 384 287 384 293 c 0
 384 317 366 326 344 326 c 0
 306 326 255 301 248 278 c 2
 169 8 l 2
 167 3 160 -0 151 -0 c 0
 137 -0 119 8 119 27 c 0
 119 30 119 33 120 37 c 2
 189 273 l 2
 190 275 190 277 190 279 c 0
 190 293 178 307 159 307 c 0
 110 307 92 269 66 218 c 0
 63 213 60 211 56 211 c 0
 46 211 36 223 36 235 c 0
 36 238 36 240 37 243 c 0xc0
EndSplineSet
Validated: 1
EndChar

StartChar: n
Encoding: 110 110 13
Width: 453
VWidth: 0
Flags: HW
HStem: -166 35<305.461 391.461> 307 54<109.461 190.461> 326 35<273.461 355.461>
LayerCount: 2
Fore
SplineSet
37 243 m 0xc0
 67 319 116 361 170 361 c 0xc0
 198 361 226 359 244 322 c 1
 270 354 285 361 342 361 c 0xa0
 373 361 408 345 408 318 c 0
 408 314 407 311 406 307 c 2xc0
 296 -72 l 2
 295 -77 294 -82 294 -87 c 0
 294 -112 314 -131 355 -131 c 0
 390 -131 399 -117 419 -97 c 1
 414 -132 385 -166 350 -166 c 0
 281 -166 244 -132 244 -94 c 0
 244 -89 245 -83 247 -77 c 2
 342 252 l 2
 347 272 356 292 356 306 c 0
 356 318 350 326 333 326 c 0xa0
 291 326 257 306 249 277 c 2
 170 6 l 2
 169 3 162 0 153 0 c 0
 138 0 119 7 119 26 c 0
 119 29 119 32 120 35 c 2
 190 272 l 2
 191 274 191 276 191 278 c 0
 191 292 179 307 160 307 c 0
 111 307 92 268 66 217 c 0
 63 212 60 210 56 210 c 0
 46 210 36 222 36 235 c 0
 36 238 36 240 37 243 c 0xc0
EndSplineSet
Validated: 1
EndChar

StartChar: o
Encoding: 111 111 14
Width: 387
VWidth: 0
Flags: W
HStem: 0 20<123.651 181.844> 326 35<188.975 270.031>
VStem: 40 69<47.7245 216.626> 284 63<141.854 304.356>
LayerCount: 2
Fore
SplineSet
146 0 m 3
 75 0 40 59 40 147 c 3
 40 248 123 361 228 361 c 3
 312 361 347 287 347 210 c 3
 347 165 304 0 146 0 c 3
153 20 m 3
 208 20 284 137 284 252 c 3
 284 277 283 326 228 326 c 3
 165 326 109 202 109 94 c 3
 109 38 119 20 153 20 c 3
EndSplineSet
Validated: 1
EndChar

StartChar: p
Encoding: 112 112 15
Width: 459
VWidth: 0
Flags: HW
HStem: 0 53<197.834 316.834> 314 47<226.834 349.834>
VStem: 370.834 48<108 293>
LayerCount: 2
Fore
SplineSet
34 -143 m 2
 129 215 l 2
 150 294 203 361 297 361 c 3
 391 361 419 307 419 194 c 3
 419 77 334 0 245 0 c 3
 193 0 145 31 145 78 c 1
 86 -143 l 2
 82 -158 66 -166 53 -166 c 0
 42 -166 33 -161 33 -149 c 0
 33 -147 33 -145 34 -143 c 2
173 173 m 3
 173 105 193 53 245 53 c 3
 324 53 371 110 371 194 c 3
 371 246 365 314 302 314 c 3
 202 314 173 235 173 173 c 3
EndSplineSet
Validated: 1
EndChar

StartChar: q
Encoding: 113 113 16
Width: 403
VWidth: 0
Flags: HW
HStem: -165 52<61 178 237 339> 0 37<116 187> 324 37<178 254>
VStem: 40 330
LayerCount: 2
Fore
SplineSet
61 -165 m 1
 61 -113 l 1
 150 -113 l 2
 171 -113 171 -113 182 -76 c 2
 216 37 l 1
 182 6 150 0 119 0 c 3
 49 0 40 78 40 136 c 3
 40 272 124 361 208 361 c 3
 266 361 281 361 306 336 c 1
 338 336 339 361 370 361 c 1
 240 -76 l 2
 238 -82 237 -87 237 -91 c 0
 237 -113 258 -113 276 -113 c 2
 339 -113 l 1
 339 -165 l 1
 61 -165 l 1
140 37 m 3
 219 37 268 159 268 244 c 0
 268 289 254 324 223 324 c 3
 146 324 103 200 103 115 c 0
 103 71 115 37 140 37 c 3
EndSplineSet
Validated: 1
EndChar

StartChar: r
Encoding: 114 114 17
Width: 390
VWidth: 0
Flags: HW
HStem: 0 18G<95.6913 115.691> 304 57<233.691 271.691> 330 31<91.6913 144.691>
VStem: 271.691 86<269 304>
LayerCount: 2
Fore
SplineSet
44 209 m 1xb0
 42 219 40 231 40 243 c 0
 40 296 63 361 135 361 c 3
 176 361 188 339 188 311 c 0
 188 291 182 267 176 245 c 1
 198 320 238 361 305 361 c 3xb0
 336 361 357 346 357 316 c 3
 357 279 339 264 313 264 c 3
 294 264 272 271 272 304 c 1xd0
 236 304 218 282 209 249 c 2
 150 41 l 2
 143 16 127 0 105 0 c 3
 90 0 73 7 73 27 c 0
 73 31 74 36 75 41 c 2
 135 249 l 2
 142 272 147 292 147 307 c 0
 147 321 142 330 127 330 c 3
 84 330 51 271 44 209 c 1xb0
EndSplineSet
Validated: 1
EndChar

StartChar: s
Encoding: 115 115 18
Width: 392
VWidth: 0
Flags: HW
HStem: 0 34<133 238> 217 70<283 304> 331 30<196 277>
VStem: 37 102<77 150> 94 83<237 319> 260 65<52 130> 280 76<220 287>
LayerCount: 2
Fore
SplineSet
84 158 m 3xf4
 108 158 138 145 138 116 c 3
 138 93 124 83 113 75 c 1
 128 50 149 34 180 34 c 3
 214 34 260 55 260 83 c 3xf4
 260 169 94 179 94 265 c 3
 94 334 174 361 236 361 c 3
 315 361 356 310 356 262 c 3
 356 233 345 217 318 217 c 3
 290 217 280 232 280 255 c 3
 280 269 291 287 304 287 c 1
 291 309 267 331 236 331 c 3
 199 331 177 303 177 272 c 3xea
 177 224 325 172 325 106 c 3
 325 24 243 0 184 0 c 3
 105 0 37 21 37 94 c 3
 37 131 55 158 84 158 c 3xf4
EndSplineSet
Validated: 1
EndChar

StartChar: t
Encoding: 116 116 19
Width: 293
VWidth: 0
Flags: HW
HStem: 0 18G<109.5 168.5> 330 51<39.5 111.5 202.5 255.5>
LayerCount: 2
Fore
SplineSet
240 166 m 0
 242 164 243 159 243 153 c 0
 243 113 195 -0 134 0 c 3
 94 0 55 28 55 81 c 0
 55 92 57 103 60 116 c 2
 112 330 l 1
 52 330 l 2
 41 330 36 343 36 356 c 0
 36 369 41 382 52 382 c 2
 124 382 l 1
 156 514 l 2
 160 530 182 538 202 538 c 0
 219 538 235 532 235 519 c 0
 235 517 234 516 234 514 c 1
 202 382 l 1
 244 382 l 2
 255 382 260 369 260 356 c 0
 260 343 255 330 244 330 c 2
 190 330 l 1
 146 154 l 2
 141 131 138 114 138 101 c 0
 138 82 143 74 151 74 c 0
 166 74 191 103 212 151 c 0
 220 169 230 174 240 166 c 0
EndSplineSet
Validated: 1
EndChar

StartChar: u
Encoding: 117 117 20
Width: 471
VWidth: 0
Flags: HW
HStem: 0 36<163.433 226.433 321.433 385.433> 326 35<115.433 174.433>
LayerCount: 2
Fore
SplineSet
36 189 m 1
 36 191 36 193 36 196 c 0
 36 238 74 361 163 361 c 3
 206 361 221 335 221 298 c 0
 221 235 176 140 165 104 c 0
 162 94 160 83 160 73 c 0
 160 52 167 36 183 36 c 3
 233 36 256 92 263 116 c 2
 335 361 l 1
 399 361 l 1
 327 116 l 2
 322 99 318 82 318 69 c 0
 318 50 326 37 351 37 c 3
 401 37 431 132 435 152 c 1
 435 80 407 0 331 0 c 3
 289 0 282 30 282 64 c 0
 282 74 283 85 283 96 c 1
 269 29 237 0 167 0 c 3
 127 0 100 34 100 86 c 3
 100 144 175 258 175 305 c 0
 175 318 170 326 155 326 c 3
 105 326 51 236 36 189 c 1
EndSplineSet
Validated: 1
EndChar

StartChar: v
Encoding: 118 118 21
Width: 480
VWidth: 0
Flags: HW
HStem: 0 43<135 214> 277 57<336 422> 344 17G<437 445> 465 18G<38 41> 495 43<67 130>
VStem: 77 51<47 196> 152 47<290 475>
LayerCount: 2
Fore
SplineSet
33 465 m 1
 43 490 72 538 108 538 c 3
 194 538 199 459 199 421 c 0
 199 416 199 411 199 408 c 3
 199 304 128 196 128 94 c 3
 128 68 137 43 171 43 c 3
 248 43 265 182 265 284 c 3
 265 318 281 361 316 361 c 3
 350 361 352 335 381 335 c 3
 409 335 426 347 447 361 c 1
 442 331 423 277 383 277 c 3
 368 277 352 294 337 294 c 0
 327 294 317 285 310 256 c 0
 294 191 316 0 162 0 c 3
 105 0 77 43 77 94 c 3
 77 205 152 252 152 387 c 3
 152 452 129 495 95 495 c 3
 63 495 50 479 33 465 c 1
EndSplineSet
Validated: 1
EndChar

StartChar: w
Encoding: 119 119 22
Width: 586
VWidth: 0
Flags: HW
HStem: 0 43<158 212> 0 32<352 401> 263 98<434 490>
VStem: 425 122<266 342>
LayerCount: 2
Fore
SplineSet
34 176 m 1xb0
 48 242 95 361 160 361 c 3
 195 361 214 337 214 257 c 3
 214 190 157 94 157 57 c 0
 157 48 161 43 170 43 c 3xb0
 254 43 283 237 331 352 c 0
 334 360 348 361 365 361 c 3
 381 361 399 360 399 353 c 0
 399 352 l 0
 370 230 344 135 344 81 c 0
 344 49 353 32 377 32 c 3
 416 32 491 167 491 240 c 0
 491 248 490 256 488 263 c 1
 432 263 425 273 425 302 c 3
 425 347 450 361 476 361 c 3
 543 361 547 301 547 245 c 3
 547 173 476 0 373 0 c 3x70
 319 0 286 22 276 79 c 1
 246 47 237 0 160 0 c 3
 105 0 87 23 87 57 c 0
 87 120 151 222 151 277 c 0
 151 283 151 288 149 293 c 0
 148 297 146 299 143 299 c 0
 124 299 73 223 34 176 c 1xb0
EndSplineSet
Validated: 1
EndChar

StartChar: y
Encoding: 121 121 23
Width: 409
VWidth: 0
Flags: HW
HStem: -165 13<109 157> 0 17<158 202> 327 34<98 162>
VStem: 34 55<-147 -123> 98 111<73 293>
LayerCount: 2
Fore
SplineSet
46 210 m 1
 47 280 73 361 150 361 c 3
 180 361 209 344 209 293 c 3
 209 249 150 117 150 53 c 0
 150 31 156 17 175 17 c 3
 205 17 245 47 248 60 c 2
 316 361 l 1
 376 361 l 1
 308 60 l 2
 277 -78 235 -165 128 -165 c 3
 68 -165 34 -144 34 -114 c 3
 34 -81 51 -63 77 -63 c 3
 103 -63 120 -76 120 -93 c 3
 120 -108 106 -124 94 -124 c 0
 93 -124 91 -123 90 -123 c 1
 90 -136 107 -153 137 -153 c 3
 184 -153 216 -77 242 38 c 1
 221 17 201 0 158 0 c 3
 141 0 98 18 98 73 c 3
 98 139 166 245 166 297 c 0
 166 316 157 327 133 327 c 3
 90 327 65 267 46 210 c 1
EndSplineSet
Validated: 1
EndChar

StartChar: z
Encoding: 122 122 24
Width: 365
VWidth: 0
Flags: HW
HStem: 0 18G<45 67 179 248> 344 17G<149 198 293 317>
VStem: 34 49<0 74> 284 49<285 361>
LayerCount: 2
Fore
SplineSet
307 168 m 1
 307 102 300 0 195 0 c 3
 163 0 138 22 104 75 c 1
 88 75 81 64 81 49 c 0
 81 44 82 38 84 32 c 0
 85 28 86 24 86 21 c 0
 86 6 74 -0 56 0 c 3
 35 0 34 7 34 47 c 3
 34 71 45 80 61 96 c 1
 238 256 l 1
 211 276 189 284 172 284 c 0
 129 284 108 239 83 209 c 0
 74 198 57 193 52 204 c 0
 52 204 52 204 52 205 c 0
 52 217 117 361 181 361 c 3
 214 361 249 344 271 284 c 1
 284 292 288 299 288 307 c 0
 288 313 286 319 284 326 c 0
 283 330 282 335 282 340 c 0
 282 351 287 361 307 361 c 3
 326 361 332 347 332 316 c 3
 332 299 327 288 317 279 c 2
 128 106 l 1
 159 83 183 70 205 70 c 0
 238 70 266 99 307 168 c 1
EndSplineSet
Validated: 1
EndChar

StartChar: cacute
Encoding: 263 263 25
Width: 353
VWidth: 0
Flags: HW
HStem: -140 68<130 213> 0 18G<136 158> 344 17G<214 257>
VStem: 40 275<236 283>
LayerCount: 2
Fore
SplineSet
226 332 m 0
 164 308 120 189 120 107 c 0
 120 67 130 36 154 29 c 1
 158 28 163 28 167 28 c 0
 218 28 233 86 274 160 c 0
 276 163 281 166 287 166 c 0
 295 166 304 160 304 143 c 1
 304 -7 285 -140 117 -140 c 3
 103 -140 92 -129 92 -116 c 0
 92 -96 115 -72 179 -72 c 3
 227 -72 234 -20 234 12 c 0
 234 20 233 27 233 32 c 1
 215 16 194 4 170 1 c 0
 165 0 161 0 156 0 c 3
 116 0 68 17 49 84 c 0
 43 106 40 126 40 145 c 3
 40 292 199 361 230 361 c 0
 285 361 294 346 311 302 c 1
 314 292 315 283 315 273 c 3
 315 240 298 211 263 211 c 0
 257 211 252 212 246 213 c 0
 233 216 227 226 227 237 c 0
 227 257 242 282 267 296 c 1
 269 298 269 301 269 304 c 0
 269 316 257 334 238 334 c 0
 234 334 230 334 226 332 c 0
EndSplineSet
Validated: 1
EndChar

StartChar: lslash
Encoding: 322 322 26
Width: 282
VWidth: 0
Flags: HW
HStem: 0 21G<88.7064 136.706>
VStem: 172.706 58<460.018 526.25>
LayerCount: 2
Fore
SplineSet
208 130 m 0
 208 133 212 135 217 135 c 0
 228 135 246 127 246 109 c 0
 246 105 245 100 243 95 c 0
 225 51 156 0 118 0 c 3
 68 0 35 25 35 61 c 0
 35 67 36 73 38 79 c 0
 86 243 117 360 173 524 c 0
 178 534 187 538 197 538 c 0
 213 538 231 525 231 511 c 0
 231 491 105 177 105 87 c 0
 105 79 106 73 108 69 c 0
 112 62 121 59 132 59 c 0
 163 59 208 83 208 130 c 0
EndSplineSet
Validated: 1
EndChar

StartChar: J
Encoding: 74 74 27
Width: 478
VWidth: 0
Flags: HW
HStem: 0 38<33 141 211 340> 503 34<125 264 334 445>
LayerCount: 2
Fore
SplineSet
33 0 m 1
 33 38 l 1
 118 38 l 2
 135 38 135 38 144 68 c 2
 262 474 l 2
 264 480 264 484 264 488 c 0
 264 504 242 500 236 503 c 1
 125 503 l 1
 125 538 l 1
 445 538 l 1
 445 503 l 1
 356 503 l 2
 353 503 l 0
 339 503 338 502 330 474 c 2
 212 68 l 2
 210 62 210 58 210 54 c 0
 210 38 224 38 238 38 c 2
 340 38 l 1
 340 0 l 1
 33 0 l 1
EndSplineSet
Validated: 1
EndChar

StartChar: oacute
Encoding: 243 243 28
Width: 398
VWidth: 0
Flags: HW
HStem: 0 21<131 190> 326 35<197 283>
VStem: 49 69<103 220> 291 62<141 260>
LayerCount: 2
Fore
SplineSet
154 0 m 3
 125 0 102 10 85 27 c 1
 52 -10 l 1
 33 8 l 1
 70 49 l 1
 56 74 49 107 49 146 c 3
 49 222 132 361 236 361 c 3
 271 361 296 348 315 327 c 1
 347 361 l 1
 364 343 l 1
 331 305 l 1
 346 278 354 243 354 208 c 3
 354 153 291 0 154 0 c 3
119 64 m 1
 123 31 134 21 161 21 c 3
 215 21 291 136 291 250 c 3
 291 253 291 257 291 260 c 1
 119 64 l 1
289 297 m 1
 284 314 271 326 236 326 c 3
 175 326 118 208 118 103 c 1
 289 297 l 1
EndSplineSet
Validated: 1
EndChar

StartChar: nacute
Encoding: 324 324 29
Width: 499
VWidth: 0
Flags: HW
HStem: 0 39<360.398 409.433> 308 53<108.587 189.285> 327 34<279.173 377.746>
LayerCount: 2
Fore
SplineSet
37 244 m 0xc0
 66 319 115 361 169 361 c 3xc0
 197 361 225 359 243 323 c 1
 275 360 308 361 356 361 c 0
 364 361 l 3xa0
 394 361 430 345 430 318 c 0
 430 315 429 312 428 308 c 2xc0
 364 93 l 2
 361 82 359 72 359 63 c 0
 359 48 365 39 384 39 c 3
 413 39 447 132 462 156 c 1
 462 154 462 151 462 148 c 0
 462 107 429 -0 374 0 c 3
 329 0 310 26 310 58 c 0
 310 68 312 78 315 88 c 2
 364 254 l 2
 370 274 378 294 378 308 c 0
 378 320 372 327 356 327 c 3xa0
 288 327 254 298 248 279 c 2
 170 10 l 2
 168 5 157 -0 145 -0 c 0
 132 -0 119 6 119 24 c 0
 119 28 119 33 121 39 c 2
 189 274 l 2
 190 276 190 278 190 280 c 0
 190 294 179 308 160 308 c 3
 111 308 93 270 67 219 c 0
 65 214 61 212 57 212 c 0
 47 212 36 224 36 237 c 0
 36 239 36 242 37 244 c 0xc0
EndSplineSet
Validated: 1
EndChar

StartChar: uni1E3F
Encoding: 7743 7743 30
Width: 697
VWidth: 0
Flags: HW
HStem: 0 39<558.148 607.711> 306 54<107.011 188.12> 325 35<487.552 576.455>
LayerCount: 2
Fore
SplineSet
37 243 m 0xc0
 66 318 115 360 169 360 c 3xc0
 197 360 224 357 242 321 c 1
 267 344 300 360 344 360 c 3xa0
 387 360 409 340 428 306 c 1xc0
 477 355 515 360 563 360 c 3xa0
 593 360 628 343 628 316 c 0
 628 313 627 310 626 306 c 2xc0
 563 92 l 2
 560 80 557 70 557 62 c 0
 557 48 564 39 582 39 c 3
 611 39 645 132 660 156 c 1
 660 154 660 151 660 148 c 0
 660 107 627 0 573 0 c 3
 528 0 510 26 510 59 c 0
 510 68 511 78 514 88 c 2
 563 253 l 2
 568 272 576 292 576 306 c 0
 576 317 571 325 554 325 c 3xa0
 504 325 442 293 428 243 c 2
 359 10 l 2
 358 6 345 1 333 1 c 0
 321 1 308 6 308 23 c 0
 308 28 309 33 311 39 c 2
 379 272 l 2
 381 279 382 286 382 292 c 0
 382 316 364 325 342 325 c 0
 305 325 254 300 247 277 c 2
 169 10 l 2
 168 6 155 1 143 1 c 0
 130 1 117 6 117 23 c 0
 117 28 118 33 120 39 c 2
 188 272 l 2
 189 274 189 276 189 278 c 0
 189 292 178 306 159 306 c 3
 110 306 92 268 66 218 c 0
 64 213 60 211 56 211 c 0
 47 211 36 223 36 236 c 0
 36 238 36 241 37 243 c 0xc0
EndSplineSet
Validated: 1
EndChar

StartChar: longs
Encoding: 383 383 31
Width: 267
VWidth: 0
Flags: HW
HStem: 0 64<34 82> 478 59<191 234>
VStem: 33 49<44 63>
LayerCount: 2
Fore
SplineSet
67 0 m 3
 47 0 33 9 33 30 c 3
 33 51 43 64 63 64 c 3
 73 64 82 54 82 44 c 1
 126 138 112 538 206 538 c 3
 221 538 235 528 235 508 c 3
 235 498 225 478 210 478 c 3
 201 478 195 483 190 489 c 1
 148 385 166 0 67 0 c 3
EndSplineSet
Validated: 1
EndChar

StartChar: uni0299
Encoding: 665 665 32
Width: 383
VWidth: 0
Flags: HW
HStem: 0 58<112.158 234> 300 60<163.158 275> 518 20G<123.935 194.446> 518 20G<123.935 194.446>
VStem: 33 317
LayerCount: 2
Fore
SplineSet
33 0 m 1xe8
 127 538 l 1
 194 538 l 1
 163 360 l 1
 350 360 l 1
 287 0 l 1
 33 0 l 1xe8
153 300 m 1
 112 58 l 1
 234 58 l 1
 275 300 l 1
 153 300 l 1
EndSplineSet
Validated: 1
EndChar

StartChar: uni1D18
Encoding: 7448 7448 33
Width: 456
VWidth: 0
Flags: HW
HStem: 0 21G<33 98.1802> 177.6 60<154 289> 477.6 60<214 349>
LayerCount: 2
Fore
SplineSet
33 0 m 1
 169 538 l 1
 424 538 l 1
 334 178 l 1
 139 178 l 1
 93 0 l 1
 33 0 l 1
154 238 m 1
 289 238 l 1
 349 478 l 1
 214 478 l 1
 154 238 l 1
EndSplineSet
Validated: 1
EndChar

StartChar: SS
Encoding: 60326 60326 34
Width: 434
VWidth: 0
Flags: HW
LayerCount: 2
Fore
SplineSet
302 474 m 1
 294 466 294 461 273 461 c 3
 251 461 237 484 232 508 c 1
 202 493 194 469 186 434 c 2
 83 0 l 1
 34 0 l 1
 137 434 l 2
 148 482 188 538 246 538 c 3
 294 538 307 520 307 484 c 1
 319 511 337 538 359 538 c 3
 387 538 397 521 397 504 c 3
 397 484 392 461 370 461 c 3
 354 461 349 466 342 480 c 1
 332 472 330 451 327 434 c 2
 240 0 l 1
 186 0 l 1
 289 434 l 2
 291 443 296 459 302 474 c 1
EndSplineSet
Validated: 1
Ligature2: "'liga' Ligatury zwyk+AUIA-e w +AUIA-aci+AUQA-skie w tablicy 0-1" longs longs
EndChar

StartChar: uni1D20
Encoding: 7456 7456 35
Width: 388
VWidth: 0
Flags: HW
HStem: 0 34.0459<152.399 212.956> 272.661 88.6055<245.787 310.008> 303.338 57.9287<116.027 149.92>
VStem: 310.698 36.8125<176.76 275.098>
LayerCount: 2
Fore
SplineSet
37 183 m 1xb0
 36 185 36 189 36 193 c 0
 36 234 62 361 145 361 c 3xb0
 195 361 215 327 215 295 c 0
 215 288 214 281 212 275 c 0
 173 156 150 92 150 61 c 0
 150 41 159 34 179 34 c 3
 229 34 311 160 311 266 c 0
 311 268 311 271 311 273 c 1
 274 277 241 284 241 309 c 3
 241 352 257 361 290 361 c 3xd0
 323 361 348 329 348 274 c 3
 348 36 236 0 176 0 c 3
 97 0 87 56 87 105 c 3
 87 164 151 265 151 294 c 0
 151 300 149 303 144 303 c 3
 142 303 140 303 138 303 c 0
 129 303 128 295 37 183 c 1xb0
EndSplineSet
Validated: 1
EndChar
